<svg width="32" height="32" xmlns="http://www.w3.org/2000/svg">

 <g>
  <title>background</title>
  <rect fill="none" id="canvas_background" height="402" width="582" y="-1" x="-1"/>
 </g>
 <g>
  <title>Layer 1</title>
  <path stroke-miterlimit="10" stroke-linejoin="round" stroke-width="2" stroke="#47d395" fill="none" id="svg_1" d="m25.9,15c-0.1,-1.5 -0.6,-2.9 -1.3,-4.2c-0.9,-1.7 -0.6,-3.9 0.8,-5.3l0,0c-1.7,-1.7 -4.3,-1.7 -6,0c-0.1,0.1 -0.2,0.2 -0.3,0.3c-1.2,-0.5 -2.6,-0.8 -4.1,-0.8c-3.7,0 -7,1.8 -9,4.6c-1.3,1.8 -2,4 -2,6.4c0,2 0.6,4 1.5,5.6l4.5,7.4l4,0l-0.3,-2.1c0.4,0.1 0.8,0.1 1.3,0.1c0.8,0 1.6,0 2.3,-0.1l-0.3,2.1l4,0l2.2,-3.3c2.4,-0.9 4.5,-2.1 5.8,-3.6l0,-7.1l-3.1,0z" class="st1"/>
  <path stroke-miterlimit="10" stroke-linejoin="round" stroke-width="2" stroke="#47d395" fill="none" id="svg_2" d="m6,22c0,0.8 -0.7,1.5 -1.5,1.5s-1.5,-0.7 -1.5,-1.5" class="st1"/>
  <path stroke-miterlimit="10" stroke-linejoin="round" stroke-width="2" stroke="#47d395" fill="none" id="svg_3" d="m9.1,11.2c1.7,-2 4.1,-3.2 6.9,-3.2" class="st1"/>
 </g>
</svg>