<?xml version="1.0" ?><!DOCTYPE svg  PUBLIC '-//W3C//DTD SVG 1.1//EN'  'http://www.w3.org/Graphics/SVG/1.1/DTD/svg11.dtd'><svg height="512px" style="enable-background:new 0 0 512 512;" version="1.1" viewBox="0 0 512 512" width="512px" xml:space="preserve" xmlns="http://www.w3.org/2000/svg" xmlns:xlink="http://www.w3.org/1999/xlink"><g id="_x32_66_x2C__Bank_deposit_x2C__cash_x2C__money"><g><path d="M268.495,74.235c-3.663-5.148-8.441-7.729-13.109-7.075c-6.532,0.911-12.411,7.838-16.555,19.506    c-9.55,26.914-24.473,32.605-34.349,29.298c-7.532-2.521-13.4-10.507-14.83-22.68h-18.724c-0.433,0-0.841-0.086-1.23-0.213    v134.004h95.655c-3.729-3.804-7.464-7.604-11.191-11.408c-20.96-21.357-25.308-48.215-20.317-65.356    c3.363-11.549,10.889-19.472,20.647-21.737c9.836-2.285,26.112-0.012,47.816,23.777l0.036,0.04V92.983    c-0.467,0.191-0.977,0.301-1.513,0.301h-18.854c-0.007,7.307-1.703,15.451-6.023,23.906c-0.707,1.385-2.11,2.182-3.565,2.182    c-0.612,0-1.233-0.142-1.816-0.439c-1.967-1.005-2.747-3.415-1.742-5.382C277.358,96.861,273.979,81.941,268.495,74.235z"/><path d="M466.588,408.598h-26.174c0.15-36.475,1.897-65.829,3.32-89.593c5.217-87.146,6.533-109.446-82.968-192.444v89.879    l31.041,34.031c1.489,1.632,1.373,4.162-0.259,5.65c-1.633,1.49-4.162,1.373-5.651-0.259l-31.959-35.037c0-0.001,0-0.001,0-0.001    l-57.54-63.082c-14.897-16.329-29.134-23.92-40.097-21.377c-6.961,1.616-12.208,7.363-14.775,16.182    c-4.339,14.903-0.349,38.468,18.348,57.519c13.358,13.635,26.73,27.257,40.101,40.876l12.764,13.003    c1.084,1.105,1.434,2.737,0.896,4.189s-1.863,2.464-3.406,2.598c-7.666,0.664-8.547,3.928-10.303,10.43    c-0.999,3.699-2.213,8.173-5.232,12.256c3.149,7.751,8.717,14.939,14.122,21.907c10.858,13.999,22.086,28.474,15.995,48.828    c-0.519,1.733-2.108,2.854-3.83,2.854c-0.38,0-0.766-0.054-1.148-0.169c-2.116-0.633-3.318-2.862-2.686-4.979    c4.911-16.41-4.155-28.098-14.652-41.631c-5.695-7.342-11.566-14.91-15.124-23.563h-75.393    c14.111,21.856,15.311,39.037,16.373,54.35c1.324,19.084,2.511,35.644,29.84,57.584h-30.989c-2.209,0-4,1.791-4,4v70.341    c0,2.209,1.791,4,4,4s4-1.791,4-4v-66.341h231.387v62.637c0,2.209,1.791,4,4,4s4-1.791,4-4v-66.637    C470.588,410.389,468.797,408.598,466.588,408.598z"/><path d="M260.558,438.436c-8.674,0-15.73,7.06-15.73,15.737c0,8.667,7.057,15.718,15.73,15.718    c8.669,0,15.721-7.051,15.721-15.718C276.278,445.495,269.227,438.436,260.558,438.436z"/><path d="M495.707,25.062H16.293c-2.209,0-4,1.791-4,4s1.791,4,4,4h106.313v255.603h165.656c2.113-2.843,3.006-6.132,3.939-9.588    c1.412-5.23,3.092-11.451,9.919-14.527l-7.855-8.003c-7.023-7.154-14.042-14.314-21.063-21.471H165.698c-2.209,0-4-1.791-4-4    c0-0.196,0.03-0.383,0.058-0.571c-0.027-0.188-0.058-0.375-0.058-0.571V33.062h8v52.436c0.39-0.127,0.798-0.213,1.23-0.213h18.431    c0.22-5.961,1.361-12.645,3.667-19.966c0.664-2.107,2.908-3.278,5.017-2.614c2.107,0.664,3.277,2.91,2.614,5.018    c-6.871,21.814-2.159,37.803,6.365,40.656c6.717,2.248,17.185-4.422,24.27-24.389c7.005-19.724,17.409-23.975,22.988-24.753    c7.607-1.062,15.36,2.812,20.733,10.36c2.792,3.924,5.163,9.316,6.282,15.688h19.536c0.536,0,1.046,0.109,1.513,0.301V33.062h8    v128.1l42.422,46.508V33.062h142.94c2.209,0,4-1.791,4-4S497.916,25.062,495.707,25.062z"/></g></g><g id="Layer_1"/></svg>